# Blender 4.0.2
# www.blender.org
mtllib lotus.mtl
g Plane_Mesh
v -7.830000 -1.700000 -4.860000
v 12.170000 -1.700000 -4.860000
v -7.830000 18.299999 -4.860000
v 12.170000 18.299999 -4.860000
vn -0.0000 -0.0000 1.0000
vt 1.000000 0.000000
vt 0.000000 1.000000
vt 0.000000 0.000000
vt 1.000000 1.000000
s 0
usemtl water
f 2/1/1 3/2/1 1/3/1
f 2/1/1 4/4/1 3/2/1
g Leave_Mesh
v -1.370000 0.702775 -3.150001
v -1.139413 0.693552 -3.150001
v -0.964168 0.693552 -3.150001
v -0.701299 0.804234 -3.150001
v -0.387701 0.901080 -3.150001
v -0.198620 0.984091 -3.150001
v -0.106386 1.067102 -3.150001
v 0.147259 1.196231 -3.150000
v 0.281000 1.265407 -3.150000
v 0.442410 1.486770 -3.150000
v 0.543868 1.675851 -3.150000
v 0.668385 1.841873 -3.150000
v 0.806737 2.021730 -3.150000
v 0.912807 2.266152 -3.150000
v 0.981983 2.422951 -3.150000
v 1.055375 2.629785 -3.150000
v 1.086511 2.832171 -3.150000
v 1.079839 2.972284 -3.150000
v 1.115384 3.386274 -3.150000
v 1.010297 3.710056 -3.150000
v 0.984735 3.903190 -3.150000
v 0.922251 4.090642 -3.150000
v 0.768880 4.320698 -3.150000
v 0.660953 4.581996 -3.150000
v 0.513263 4.766609 -3.150000
v 0.269006 4.945541 -3.150000
v 0.105300 5.148694 -3.150000
v -0.028820 5.253229 -3.150000
v -0.301006 5.369598 -3.150000
v -0.515993 5.495829 -3.150000
v -0.681671 5.556973 -3.150000
v -0.989359 5.586557 -3.150000
v -1.304936 5.661507 -3.150000
v -1.486393 5.649673 -3.150000
v -1.730965 5.604309 -3.150000
v -2.074156 5.564862 -3.150000
v -2.361791 5.425153 -3.150000
v -2.624772 5.323796 -3.150000
v -2.854881 5.118342 -3.150000
v -2.950759 5.011506 -3.150000
v -3.152104 4.869058 -3.150000
v -3.260310 4.751264 -3.150000
v -3.405498 4.480065 -3.150000
v -3.493158 4.318441 -3.150000
v -3.631497 4.139011 -3.150000
v -3.724636 3.929448 -3.150000
v -3.780793 3.696600 -3.150000
v -3.846539 3.496625 -3.150000
v -3.823817 3.050715 -3.150000
v -3.801095 2.579242 -3.150000
v -3.687488 2.323625 -3.150000
v -3.667606 2.110610 -3.150000
v -3.556839 1.891915 -3.150000
v -3.366545 1.718663 -3.150000
v -3.162051 1.454525 -3.150000
v -2.829748 1.213108 -3.150000
v -2.508806 0.934769 -3.150001
v -2.148101 0.849563 -3.150001
v -1.824319 0.703009 -3.150001
v -1.602592 0.679272 -3.150001
v -1.370000 0.702775 -3.160001
v -1.139413 0.693552 -3.160001
v -0.964168 0.693552 -3.160001
v -0.701299 0.804234 -3.160001
v -0.387701 0.901080 -3.160001
v -0.198620 0.984091 -3.160001
v -0.106386 1.067102 -3.160001
v 0.147259 1.196231 -3.160001
v 0.281000 1.265407 -3.160000
v 0.442410 1.486770 -3.160000
v 0.543868 1.675851 -3.160000
v 0.668385 1.841873 -3.160000
v 0.806737 2.021730 -3.160000
v 0.912807 2.266152 -3.160000
v 0.981983 2.422951 -3.160000
v 1.055375 2.629785 -3.160000
v 1.086511 2.832171 -3.160000
v 1.079839 2.972284 -3.160000
v 1.115384 3.386274 -3.160000
v 1.010297 3.710056 -3.160000
v 0.984735 3.903190 -3.160000
v 0.922251 4.090642 -3.160000
v 0.768880 4.320698 -3.160000
v 0.660953 4.581996 -3.160000
v 0.513263 4.766609 -3.160000
v 0.269006 4.945541 -3.160000
v 0.105300 5.148694 -3.160000
v -0.028820 5.253229 -3.160000
v -0.301006 5.369598 -3.160000
v -0.515993 5.495829 -3.160000
v -0.681671 5.556973 -3.160000
v -0.989359 5.586557 -3.160000
v -1.304936 5.661507 -3.160000
v -1.486393 5.649673 -3.160000
v -1.730965 5.604309 -3.160000
v -2.074156 5.564862 -3.160000
v -2.361791 5.425153 -3.160000
v -2.624772 5.323796 -3.160000
v -2.854881 5.118342 -3.160000
v -2.950759 5.011506 -3.160000
v -3.152104 4.869058 -3.160000
v -3.260310 4.751264 -3.160000
v -3.405498 4.480065 -3.160000
v -3.493158 4.318441 -3.160000
v -3.631497 4.139011 -3.160000
v -3.724636 3.929448 -3.160000
v -3.780793 3.696600 -3.160000
v -3.846539 3.496625 -3.160000
v -3.823817 3.050715 -3.160000
v -3.801095 2.579242 -3.160000
v -3.687488 2.323625 -3.160000
v -3.667606 2.110610 -3.160000
v -3.556839 1.891915 -3.160000
v -3.366545 1.718663 -3.160000
v -3.162051 1.454525 -3.160000
v -2.829748 1.213108 -3.160000
v -2.508806 0.934769 -3.160001
v -2.148101 0.849563 -3.160001
v -1.824319 0.703009 -3.160001
v -1.602592 0.679272 -3.160001
vn -0.0000 -0.0000 1.0000
vn -0.0000 -0.0000 -1.0000
vn -0.0400 -0.9992 -0.0000
vn -0.0000 -1.0000 -0.0000
vn 0.3881 -0.9216 -0.0000
vn 0.2951 -0.9555 -0.0000
vn 0.4020 -0.9156 -0.0000
vn 0.6690 -0.7433 -0.0000
vn 0.4537 -0.8912 -0.0000
vn 0.4594 -0.8882 -0.0000
vn 0.8080 -0.5892 -0.0000
vn 0.8812 -0.4728 -0.0000
vn 0.8000 -0.6000 -0.0000
vn 0.7926 -0.6097 -0.0000
vn 0.9173 -0.3981 -0.0000
vn 0.9149 -0.4036 -0.0000
vn 0.9424 -0.3344 -0.0000
vn 0.9884 -0.1521 -0.0000
vn 0.9989 0.0476 -0.0000
vn 0.9963 -0.0855 -0.0000
vn 0.9512 0.3087 -0.0000
vn 0.9914 0.1312 -0.0000
vn 0.9487 0.3162 -0.0000
vn 0.8321 0.5547 -0.0000
vn 0.9243 0.3818 -0.0000
vn 0.7809 0.6247 -0.0000
vn 0.5910 0.8067 -0.0000
vn 0.7787 0.6275 -0.0000
vn 0.6147 0.7887 -0.0000
vn 0.3931 0.9195 -0.0000
vn 0.5063 0.8623 -0.0000
vn 0.3462 0.9382 -0.0000
vn 0.0957 0.9954 -0.0000
vn 0.2311 0.9729 -0.0000
vn -0.0651 0.9979 -0.0000
vn -0.1824 0.9832 -0.0000
vn -0.1142 0.9935 -0.0000
vn -0.4369 0.8995 -0.0000
vn -0.3596 0.9331 -0.0000
vn -0.6660 0.7459 -0.0000
vn -0.7442 0.6679 -0.0000
vn -0.5776 0.8164 -0.0000
vn -0.7364 0.6765 -0.0000
vn -0.8816 0.4720 -0.0000
vn -0.8790 0.4768 -0.0000
vn -0.7919 0.6106 -0.0000
vn -0.9138 0.4061 -0.0000
vn -0.9721 0.2345 -0.0000
vn -0.9500 0.3123 -0.0000
vn -0.9987 -0.0509 -0.0000
vn -0.9988 -0.0481 -0.0000
vn -0.9138 -0.4061 -0.0000
vn -0.9957 -0.0929 -0.0000
vn -0.8921 -0.4518 -0.0000
vn -0.6732 -0.7394 -0.0000
vn -0.7907 -0.6122 -0.0000
vn -0.5878 -0.8090 -0.0000
vn -0.6552 -0.7555 -0.0000
vn -0.2299 -0.9732 -0.0000
vn -0.4124 -0.9110 -0.0000
vn -0.1064 -0.9943 -0.0000
vn 0.1005 -0.9949 -0.0000
vt 0.427052 0.010390
vt 0.300437 0.046349
vt 0.182223 0.129373
vt 0.408315 0.994145
vt 0.452818 0.998909
vt 0.343327 0.964730
vt 0.499503 0.994192
vt 0.545784 0.996043
vt 0.633720 0.973828
vt 0.580958 0.996043
vt 0.696663 0.954390
vt 0.753127 0.921067
vt 0.734614 0.937728
vt 0.206512 0.891761
vt 0.270929 0.947628
vt 0.098770 0.790290
vt 0.139814 0.843306
vt 0.038343 0.711621
vt 0.060575 0.755516
vt 0.034352 0.668866
vt 0.006989 0.522930
vt 0.011550 0.617560
vt 0.883641 0.798883
vt 0.804036 0.895149
vt 0.830880 0.881264
vt 0.863277 0.836834
vt 0.908633 0.765560
vt 0.936402 0.729460
vt 0.957692 0.680402
vt 0.977259 0.390591
vt 0.991218 0.538672
vt 0.971576 0.648930
vt 0.986307 0.607416
vt 0.992557 0.566794
vt 0.998352 0.455578
vt 0.972129 0.351827
vt 0.928804 0.268027
vt 0.959587 0.314202
vt 0.907141 0.215581
vt 0.877498 0.178527
vt 0.073357 0.268480
vt 0.015625 0.393292
vt 0.002429 0.433430
vt 0.045591 0.304494
vt 0.026896 0.346556
vt 0.828473 0.142613
vt 0.795615 0.101838
vt 0.714064 0.057499
vt 0.768695 0.080856
vt 0.141811 0.157964
vt 0.120093 0.181607
vt 0.090952 0.236040
vt 0.670913 0.032163
vt 0.575902 0.013953
vt 0.637659 0.019891
vt 0.512562 -0.001091
vt 0.476141 0.001285
vt 0.247653 0.066692
vt 0.201467 0.107930
vt 0.358169 0.018307
s 0
usemtl æè´¨.001
f 39/5/2 41/6/2 44/7/2
f 63/8/2 64/9/2 62/10/2
f 64/9/2 5/11/2 62/10/2
f 5/11/2 6/12/2 8/13/2
f 6/12/2 7/14/2 8/13/2
f 8/13/2 9/15/2 11/16/2
f 9/15/2 10/17/2 11/16/2
f 60/18/2 61/19/2 62/10/2
f 58/20/2 59/21/2 60/18/2
f 56/22/2 57/23/2 55/24/2
f 57/23/2 58/20/2 55/24/2
f 53/25/2 54/26/2 55/24/2
f 58/20/2 60/18/2 55/24/2
f 60/18/2 62/10/2 15/27/2
f 62/10/2 5/11/2 8/13/2
f 11/16/2 12/28/2 15/27/2
f 12/28/2 13/29/2 14/30/2
f 15/27/2 12/28/2 14/30/2
f 16/31/2 17/32/2 18/33/2
f 15/27/2 16/31/2 24/34/2
f 16/31/2 18/33/2 22/35/2
f 18/33/2 19/36/2 22/35/2
f 19/36/2 20/37/2 22/35/2
f 20/37/2 21/38/2 22/35/2
f 22/35/2 23/39/2 24/34/2
f 24/34/2 25/40/2 27/41/2
f 25/40/2 26/42/2 27/41/2
f 27/41/2 28/43/2 29/44/2
f 22/35/2 24/34/2 16/31/2
f 8/13/2 11/16/2 15/27/2
f 60/18/2 15/27/2 48/45/2
f 62/10/2 8/13/2 15/27/2
f 53/25/2 55/24/2 60/18/2
f 51/46/2 52/47/2 53/25/2
f 49/48/2 50/49/2 48/45/2
f 50/49/2 51/46/2 48/45/2
f 51/46/2 53/25/2 48/45/2
f 48/45/2 53/25/2 60/18/2
f 48/45/2 15/27/2 30/50/2
f 24/34/2 27/41/2 15/27/2
f 27/41/2 29/44/2 30/50/2
f 30/50/2 31/51/2 33/52/2
f 31/51/2 32/53/2 33/52/2
f 27/41/2 30/50/2 15/27/2
f 45/54/2 46/55/2 47/56/2
f 47/56/2 48/45/2 44/7/2
f 33/52/2 34/57/2 36/58/2
f 34/57/2 35/59/2 36/58/2
f 36/58/2 37/60/2 38/61/2
f 44/7/2 48/45/2 30/50/2
f 30/50/2 33/52/2 36/58/2
f 45/54/2 47/56/2 44/7/2
f 42/62/2 43/63/2 41/6/2
f 43/63/2 44/7/2 41/6/2
f 30/50/2 36/58/2 44/7/2
f 36/58/2 38/61/2 39/5/2
f 39/5/2 40/64/2 41/6/2
f 36/58/2 39/5/2 44/7/2
f 99/5/3 104/7/3 101/6/3
f 123/8/3 122/10/3 124/9/3
f 124/9/3 122/10/3 65/11/3
f 65/11/3 68/13/3 66/12/3
f 66/12/3 68/13/3 67/14/3
f 68/13/3 71/16/3 69/15/3
f 69/15/3 71/16/3 70/17/3
f 120/18/3 122/10/3 121/19/3
f 118/20/3 120/18/3 119/21/3
f 116/22/3 115/24/3 117/23/3
f 117/23/3 115/24/3 118/20/3
f 113/25/3 115/24/3 114/26/3
f 118/20/3 115/24/3 120/18/3
f 120/18/3 75/27/3 122/10/3
f 122/10/3 68/13/3 65/11/3
f 71/16/3 75/27/3 72/28/3
f 72/28/3 74/30/3 73/29/3
f 75/27/3 74/30/3 72/28/3
f 76/31/3 78/33/3 77/32/3
f 75/27/3 84/34/3 76/31/3
f 76/31/3 82/35/3 78/33/3
f 78/33/3 82/35/3 79/36/3
f 79/36/3 82/35/3 80/37/3
f 80/37/3 82/35/3 81/38/3
f 82/35/3 84/34/3 83/39/3
f 84/34/3 87/41/3 85/40/3
f 85/40/3 87/41/3 86/42/3
f 87/41/3 89/44/3 88/43/3
f 82/35/3 76/31/3 84/34/3
f 68/13/3 75/27/3 71/16/3
f 120/18/3 108/45/3 75/27/3
f 122/10/3 75/27/3 68/13/3
f 113/25/3 120/18/3 115/24/3
f 111/46/3 113/25/3 112/47/3
f 109/48/3 108/45/3 110/49/3
f 110/49/3 108/45/3 111/46/3
f 111/46/3 108/45/3 113/25/3
f 108/45/3 120/18/3 113/25/3
f 108/45/3 90/50/3 75/27/3
f 84/34/3 75/27/3 87/41/3
f 87/41/3 90/50/3 89/44/3
f 90/50/3 93/52/3 91/51/3
f 91/51/3 93/52/3 92/53/3
f 87/41/3 75/27/3 90/50/3
f 105/54/3 107/56/3 106/55/3
f 107/56/3 104/7/3 108/45/3
f 93/52/3 96/58/3 94/57/3
f 94/57/3 96/58/3 95/59/3
f 96/58/3 98/61/3 97/60/3
f 104/7/3 90/50/3 108/45/3
f 90/50/3 96/58/3 93/52/3
f 105/54/3 104/7/3 107/56/3
f 102/62/3 101/6/3 103/63/3
f 103/63/3 101/6/3 104/7/3
f 90/50/3 104/7/3 96/58/3
f 96/58/3 99/5/3 98/61/3
f 99/5/3 101/6/3 100/64/3
f 96/58/3 104/7/3 99/5/3
f 5/11/4 66/12/4 6/12/4
f 6/12/5 67/14/5 7/14/5
f 7/14/6 68/13/6 8/13/6
f 8/13/7 69/15/7 9/15/7
f 9/15/8 70/17/8 10/17/8
f 10/17/9 71/16/9 11/16/9
f 11/16/10 72/28/10 12/28/10
f 12/28/11 73/29/11 13/29/11
f 14/30/12 73/29/12 74/30/12
f 14/30/13 75/27/13 15/27/13
f 15/27/14 76/31/14 16/31/14
f 16/31/15 77/32/15 17/32/15
f 17/32/16 78/33/16 18/33/16
f 18/33/17 79/36/17 19/36/17
f 19/36/18 80/37/18 20/37/18
f 20/37/19 81/38/19 21/38/19
f 21/38/20 82/35/20 22/35/20
f 22/35/21 83/39/21 23/39/21
f 23/39/22 84/34/22 24/34/22
f 24/34/23 85/40/23 25/40/23
f 26/42/24 85/40/24 86/42/24
f 26/42/25 87/41/25 27/41/25
f 27/41/26 88/43/26 28/43/26
f 28/43/27 89/44/27 29/44/27
f 29/44/28 90/50/28 30/50/28
f 30/50/29 91/51/29 31/51/29
f 31/51/30 92/53/30 32/53/30
f 32/53/31 93/52/31 33/52/31
f 33/52/32 94/57/32 34/57/32
f 34/57/33 95/59/33 35/59/33
f 36/58/34 95/59/34 96/58/34
f 36/58/35 97/60/35 37/60/35
f 37/60/36 98/61/36 38/61/36
f 38/61/37 99/5/37 39/5/37
f 39/5/38 100/64/38 40/64/38
f 40/64/39 101/6/39 41/6/39
f 41/6/40 102/62/40 42/62/40
f 42/62/41 103/63/41 43/63/41
f 43/63/42 104/7/42 44/7/42
f 44/7/43 105/54/43 45/54/43
f 45/54/44 106/55/44 46/55/44
f 46/55/45 107/56/45 47/56/45
f 47/56/46 108/45/46 48/45/46
f 48/45/47 109/48/47 49/48/47
f 50/49/48 109/48/48 110/49/48
f 50/49/49 111/46/49 51/46/49
f 51/46/50 112/47/50 52/47/50
f 52/47/51 113/25/51 53/25/51
f 53/25/52 114/26/52 54/26/52
f 54/26/53 115/24/53 55/24/53
f 55/24/54 116/22/54 56/22/54
f 56/22/55 117/23/55 57/23/55
f 57/23/56 118/20/56 58/20/56
f 58/20/57 119/21/57 59/21/57
f 59/21/58 120/18/58 60/18/58
f 60/18/59 121/19/59 61/19/59
f 61/19/60 122/10/60 62/10/60
f 62/10/61 123/8/61 63/8/61
f 63/8/62 124/9/62 64/9/62
f 64/9/63 65/11/63 5/11/63
f 5/11/4 65/11/4 66/12/4
f 6/12/5 66/12/5 67/14/5
f 7/14/6 67/14/6 68/13/6
f 8/13/7 68/13/7 69/15/7
f 9/15/8 69/15/8 70/17/8
f 10/17/9 70/17/9 71/16/9
f 11/16/10 71/16/10 72/28/10
f 12/28/11 72/28/11 73/29/11
f 14/30/12 13/29/12 73/29/12
f 14/30/13 74/30/13 75/27/13
f 15/27/14 75/27/14 76/31/14
f 16/31/15 76/31/15 77/32/15
f 17/32/16 77/32/16 78/33/16
f 18/33/17 78/33/17 79/36/17
f 19/36/18 79/36/18 80/37/18
f 20/37/19 80/37/19 81/38/19
f 21/38/20 81/38/20 82/35/20
f 22/35/21 82/35/21 83/39/21
f 23/39/22 83/39/22 84/34/22
f 24/34/23 84/34/23 85/40/23
f 26/42/24 25/40/24 85/40/24
f 26/42/25 86/42/25 87/41/25
f 27/41/26 87/41/26 88/43/26
f 28/43/27 88/43/27 89/44/27
f 29/44/28 89/44/28 90/50/28
f 30/50/29 90/50/29 91/51/29
f 31/51/30 91/51/30 92/53/30
f 32/53/31 92/53/31 93/52/31
f 33/52/32 93/52/32 94/57/32
f 34/57/33 94/57/33 95/59/33
f 36/58/34 35/59/34 95/59/34
f 36/58/35 96/58/35 97/60/35
f 37/60/36 97/60/36 98/61/36
f 38/61/37 98/61/37 99/5/37
f 39/5/38 99/5/38 100/64/38
f 40/64/39 100/64/39 101/6/39
f 41/6/40 101/6/40 102/62/40
f 42/62/41 102/62/41 103/63/41
f 43/63/42 103/63/42 104/7/42
f 44/7/43 104/7/43 105/54/43
f 45/54/44 105/54/44 106/55/44
f 46/55/45 106/55/45 107/56/45
f 47/56/46 107/56/46 108/45/46
f 48/45/47 108/45/47 109/48/47
f 50/49/48 49/48/48 109/48/48
f 50/49/49 110/49/49 111/46/49
f 51/46/50 111/46/50 112/47/50
f 52/47/51 112/47/51 113/25/51
f 53/25/52 113/25/52 114/26/52
f 54/26/53 114/26/53 115/24/53
f 55/24/54 115/24/54 116/22/54
f 56/22/55 116/22/55 117/23/55
f 57/23/56 117/23/56 118/20/56
f 58/20/57 118/20/57 119/21/57
f 59/21/58 119/21/58 120/18/58
f 60/18/59 120/18/59 121/19/59
f 61/19/60 121/19/60 122/10/60
f 62/10/61 122/10/61 123/8/61
f 63/8/62 123/8/62 124/9/62
f 64/9/63 124/9/63 65/11/63
g Room_Mesh
v -5.050000 0.000000 -3.380000
v 4.950000 0.000000 -3.380000
v 4.950000 0.000000 -5.380000
v 4.950000 10.000000 -3.380000
v 4.950000 10.000000 -5.380000
v -5.050000 10.000000 -3.380000
v -5.050000 10.000000 -5.380000
v -5.050000 0.000000 -5.380000
v -4.950000 0.100000 -3.380000
v 4.850000 0.100000 -3.380000
v 4.850000 0.100000 -5.380000
v 4.850000 9.900000 -3.380000
v 4.850000 9.900000 -5.380000
v -4.950000 9.900000 -3.380000
v -4.950000 9.900000 -5.380000
v -4.950000 0.100000 -5.380000
vn -0.0000 -1.0000 -0.0000
vn 1.0000 -0.0000 -0.0000
vn -0.0000 1.0000 -0.0000
vn -1.0000 -0.0000 -0.0000
vn -0.0000 -0.0000 1.0000
vn -0.0000 -0.0000 -1.0000
vt 0.050025 0.000028
vt 0.000028 0.250014
vt 0.000028 0.000028
vt 0.050025 0.250014
vt 0.000028 0.500000
vt 0.050025 0.500000
vt 0.000028 0.749986
vt 0.050025 0.749986
vt 0.000028 0.999972
vt 0.050025 0.999972
s 0
usemtl Wall_material
f 132/65/64 126/66/64 125/67/64
f 127/68/65 128/69/65 126/66/65
f 129/70/66 130/71/66 128/69/66
f 131/72/67 125/73/67 130/71/67
f 132/65/64 127/68/64 126/66/64
f 127/68/65 129/70/65 128/69/65
f 129/70/66 131/72/66 130/71/66
f 131/72/67 132/74/67 125/73/67
f 140/65/66 133/67/66 134/66/66
f 135/68/67 134/66/67 136/69/67
f 137/70/64 136/69/64 138/71/64
f 139/72/65 138/71/65 133/73/65
f 140/65/66 134/66/66 135/68/66
f 135/68/67 136/69/67 137/70/67
f 137/70/64 138/71/64 139/72/64
f 139/72/65 133/73/65 140/74/65
f 126/66/68 133/67/68 125/67/68
f 128/69/68 134/66/68 126/66/68
f 130/71/68 136/69/68 128/69/68
f 132/74/69 139/72/69 140/74/69
f 129/70/69 139/72/69 131/72/69
f 127/68/69 137/70/69 129/70/69
f 125/73/68 138/71/68 130/71/68
f 132/65/69 135/68/69 127/68/69
f 126/66/68 134/66/68 133/67/68
f 128/69/68 136/69/68 134/66/68
f 130/71/68 138/71/68 136/69/68
f 132/74/69 131/72/69 139/72/69
f 129/70/69 137/70/69 139/72/69
f 127/68/69 135/68/69 137/70/69
f 125/73/68 133/73/68 138/71/68
f 132/65/69 140/65/69 135/68/69
g Baseboard_Mesh
v -5.050000 0.000000 -5.260000
v -5.050000 0.000000 -5.380000
v 4.950000 0.000000 -5.260000
v 4.950000 0.000000 -5.380000
v 4.950000 10.000000 -5.260000
v 4.950000 10.000000 -5.380000
v -5.050000 10.000000 -5.260000
v -5.050000 10.000000 -5.380000
v -5.050000 0.000000 -5.260000
v -5.050000 0.000000 -5.380000
v -5.050000 0.015000 -5.260000
v -5.050000 0.015000 -5.380000
v 4.935000 0.015000 -5.260000
v 4.935000 0.015000 -5.380000
v 4.935000 9.985000 -5.260000
v 4.935000 9.985000 -5.380000
v -5.035000 9.985000 -5.260000
v -5.035000 9.985000 -5.380000
v -5.035000 -0.000000 -5.260000
v -5.035000 -0.000000 -5.380000
vn -0.0000 -1.0000 -0.0000
vn 1.0000 -0.0000 -0.0000
vn -0.0000 1.0000 -0.0000
vn -1.0000 -0.0000 -0.0000
vn -0.0000 -0.0000 1.0000
vn -0.0000 -0.0000 -1.0000
vt 0.050081 0.982730
vt 0.053029 0.737055
vt 0.053029 0.982730
vt 0.050081 0.737055
vt 0.053029 0.491379
vt 0.050081 0.491379
vt 0.053029 0.245703
vt 0.050081 0.245703
vt 0.053029 0.000028
vt 0.050081 0.000028
s 0
usemtl Baseboard_material
f 142/75/70 143/76/70 141/77/70
f 144/78/71 145/79/71 143/76/71
f 146/80/72 147/81/72 145/79/72
f 148/82/73 149/83/73 147/81/73
f 153/76/72 152/75/72 151/77/72
f 155/79/73 154/78/73 153/76/73
f 157/81/70 156/80/70 155/79/70
f 159/83/71 158/82/71 157/81/71
f 141/77/73 152/75/73 142/75/73
f 141/77/74 153/76/74 151/77/74
f 145/79/74 153/76/74 143/76/74
f 147/81/74 155/79/74 145/79/74
f 149/83/74 157/81/74 147/81/74
f 150/84/75 158/82/75 160/84/75
f 146/80/75 158/82/75 148/82/75
f 150/84/70 159/83/70 149/83/70
f 144/78/75 156/80/75 146/80/75
f 142/75/75 154/78/75 144/78/75
f 142/75/70 144/78/70 143/76/70
f 144/78/71 146/80/71 145/79/71
f 146/80/72 148/82/72 147/81/72
f 148/82/73 150/84/73 149/83/73
f 153/76/72 154/78/72 152/75/72
f 155/79/73 156/80/73 154/78/73
f 157/81/70 158/82/70 156/80/70
f 159/83/71 160/84/71 158/82/71
f 141/77/73 151/77/73 152/75/73
f 141/77/74 143/76/74 153/76/74
f 145/79/74 155/79/74 153/76/74
f 147/81/74 157/81/74 155/79/74
f 149/83/74 159/83/74 157/81/74
f 150/84/75 148/82/75 158/82/75
f 146/80/75 156/80/75 158/82/75
f 150/84/70 160/84/70 159/83/70
f 144/78/75 154/78/75 156/80/75
f 142/75/75 152/75/75 154/78/75
